HIERARCHY
ROOT joint_Root
{
	OFFSET 0.0 0.0 0.0
	CHANNELS 6 Xposition Yposition Zposition Zrotation Xrotation Yrotation 
	JOINT Hips
	{
		OFFSET -0.726466 93.3139 -2.00062
		CHANNELS 6 Xposition Yposition Zposition Zrotation Xrotation Yrotation 
		JOINT Spine
		{
			OFFSET 15.7357 0.0 0.0
			CHANNELS 6 Xposition Yposition Zposition Zrotation Xrotation Yrotation 
			JOINT Chest
			{
				OFFSET 8.98455 -0.406207 0.0
				CHANNELS 6 Xposition Yposition Zposition Zrotation Xrotation Yrotation 
				JOINT Neck
				{
					OFFSET 16.3773 0.0 0.0
					CHANNELS 6 Xposition Yposition Zposition Zrotation Xrotation Yrotation 
					JOINT Head
					{
						OFFSET 6.45672 0.0 0.0
						CHANNELS 6 Xposition Yposition Zposition Zrotation Xrotation Yrotation 
						End Site
						{
							OFFSET 0.0 0.0 0.0
						}
					}
				}
				JOINT Shoulder_L
				{
					OFFSET 12.9942 -0.242716 4.98039
					CHANNELS 6 Xposition Yposition Zposition Zrotation Xrotation Yrotation 
					JOINT UpperArm_L
					{
						OFFSET 5.34809 0.0 0.0
						CHANNELS 6 Xposition Yposition Zposition Zrotation Xrotation Yrotation 
						JOINT LowerArm_L
						{
							OFFSET 24.3286 1.87007e-05 0.0
							CHANNELS 6 Xposition Yposition Zposition Zrotation Xrotation Yrotation 
							JOINT Hand_L
							{
								OFFSET 22.2916 0.0 0.0
								CHANNELS 6 Xposition Yposition Zposition Zrotation Xrotation Yrotation 
								End Site
								{
									OFFSET 0.0 0.0 0.0
								}
							}
						}
					}
				}
				JOINT Shoulder_R
				{
					OFFSET 12.9945 -0.242716 -4.98039
					CHANNELS 6 Xposition Yposition Zposition Zrotation Xrotation Yrotation 
					JOINT UpperArm_R
					{
						OFFSET -5.34813 0.0 0.0
						CHANNELS 6 Xposition Yposition Zposition Zrotation Xrotation Yrotation 
						JOINT LowerArm_R
						{
							OFFSET -24.3289 0.000322201 0.0
							CHANNELS 6 Xposition Yposition Zposition Zrotation Xrotation Yrotation 
							JOINT Hand_R
							{
								OFFSET -22.2915 -0.000108084 0.0
								CHANNELS 6 Xposition Yposition Zposition Zrotation Xrotation Yrotation 
								End Site
								{
									OFFSET 0.0 0.0 0.0
								}
							}
						}
					}
				}
			}
		}
		JOINT UpperLeg_L
		{
			OFFSET -2.19248 -6.46944 0.0
			CHANNELS 6 Xposition Yposition Zposition Zrotation Xrotation Yrotation 
			JOINT LowerLeg_L
			{
				OFFSET 39.0811 0.0 -1.23785e-05
				CHANNELS 6 Xposition Yposition Zposition Zrotation Xrotation Yrotation 
				JOINT Foot_L
				{
					OFFSET 40.9854 0.0 -1.26872e-05
					CHANNELS 6 Xposition Yposition Zposition Zrotation Xrotation Yrotation 
					JOINT Toes_L
					{
						OFFSET 11.7543 0.0 0.0
						CHANNELS 6 Xposition Yposition Zposition Zrotation Xrotation Yrotation 
						End Site
						{
							OFFSET 0.0 0.0 0.0
						}
					}
				}
			}
		}
		JOINT UpperLeg_R
		{
			OFFSET -2.19251 6.46944 0.0
			CHANNELS 6 Xposition Yposition Zposition Zrotation Xrotation Yrotation 
			JOINT LowerLeg_R
			{
				OFFSET -39.0811 -0.00228153 -0.0401928
				CHANNELS 6 Xposition Yposition Zposition Zrotation Xrotation Yrotation 
				JOINT Foot_R
				{
					OFFSET -40.9854 0.0 0.0
					CHANNELS 6 Xposition Yposition Zposition Zrotation Xrotation Yrotation 
					JOINT Toes_R
					{
						OFFSET -11.7543 0.0 0.0
						CHANNELS 6 Xposition Yposition Zposition Zrotation Xrotation Yrotation 
						End Site
						{
							OFFSET 0.0 0.0 0.0
						}
					}
				}
			}
		}
	}
}
MOTION
Frames:	5
Frame Time:	0.0333333
0.000000 0.000000 0.000000 0.000000 0.000000 -0.000000 -1.023920 92.914400 -1.119880 89.033700 -4.069430 1.910550 15.735700 0.000005 -0.000001 94.033000 86.876800 -93.959100 8.984550 -0.406207 -0.000000 -1.535370 0.433218 0.153542 16.377300 -0.000001 -0.000001 1.457890 -1.509080 1.958200 6.456720 -0.000001 -0.000000 8.214760 -0.614083 -3.806030 12.994200 -0.242716 4.980390 -90.025800 0.075173 -71.042600 5.348090 -0.000007 -0.000001 -70.086000 39.286100 -9.124010 24.328600 0.000019 0.000005 3.875960 8.908160 -23.628800 22.291600 -0.000001 0.000005 3.772330 5.445470 -4.479440 12.994500 -0.242716 -4.980390 87.518600 7.810150 -72.312900 -5.348130 -0.000001 -0.000004 -65.761000 37.683800 -10.057200 -24.328900 0.000322 -0.000009 3.040180 8.982330 -18.792900 -22.291500 -0.000108 -0.000004 9.024980 5.383120 -2.396750 -2.192480 -6.469440 -0.000000 -176.617000 -10.339600 -2.554720 39.081100 -0.000007 -0.000012 -0.066306 0.209023 17.600000 40.985400 -0.000006 -0.000013 -0.509933 2.923820 -63.129700 11.754300 -0.000000 0.000003 -0.000001 -0.000009 -16.577800 -2.192510 6.469440 -0.000001 179.280000 10.551400 179.602000 -39.081100 -0.002282 -0.040193 -0.053241 0.214940 14.745600 -40.985400 0.000008 0.000006 1.102770 7.055240 -62.700500 -11.754300 -0.000006 -0.000006 -0.006472 -0.075064 -19.628500
0.000000 0.000000 0.000000 0.000000 0.000000 -0.000000 -1.025180 92.919600 -1.173800 89.009900 -4.058830 1.824430 15.735700 0.000005 -0.000001 94.351200 86.866700 -94.216500 8.984550 -0.406207 -0.000000 -1.518020 0.464429 0.275408 16.377300 -0.000001 -0.000001 1.290930 -1.576150 1.969830 6.456720 -0.000001 -0.000000 8.183520 -0.793123 -3.967300 12.994200 -0.242716 4.980390 -90.086100 0.247803 -70.850200 5.348090 -0.000007 -0.000001 -68.502600 38.219700 -10.104400 24.328600 0.000019 0.000005 4.999620 10.325300 -26.014300 22.291600 -0.000001 0.000005 1.655530 5.449300 -4.616660 12.994500 -0.242716 -4.980390 87.543000 7.721810 -72.289100 -5.348130 -0.000001 -0.000004 -65.906800 37.319600 -9.978190 -24.328900 0.000322 -0.000009 3.061060 9.044840 -18.792500 -22.291500 -0.000108 -0.000004 9.028970 5.382650 -2.381940 -2.192480 -6.469440 -0.000000 -176.612000 -10.329700 -2.684580 39.081100 -0.000007 -0.000012 -0.067173 0.211598 17.612200 40.985400 -0.000006 -0.000013 -0.511272 2.907710 -63.098900 11.754300 -0.000000 0.000003 -0.000001 -0.000021 -16.578300 -2.192510 6.469440 -0.000001 179.325000 10.585300 179.486000 -39.081100 -0.002282 -0.040193 -0.053162 0.215062 14.718200 -40.985400 0.000008 0.000006 1.108600 7.085260 -62.644200 -11.754300 -0.000006 -0.000006 -0.006504 -0.075343 -19.639800
0.000000 0.000000 0.000000 0.000000 0.000000 -0.000000 -1.028910 92.927900 -1.223020 89.027300 -4.006230 1.823820 15.735700 0.000005 -0.000001 94.948300 86.832200 -94.755100 8.984550 -0.406207 -0.000000 -1.454900 0.530839 0.393017 16.377300 -0.000001 -0.000001 1.175110 -1.597970 1.948860 6.456720 -0.000001 -0.000000 8.027070 -0.972112 -4.059360 12.994200 -0.242716 4.980390 -90.133500 0.376635 -70.486900 5.348090 -0.000007 -0.000001 -65.717500 36.448200 -11.887200 24.328600 0.000019 0.000005 6.267140 10.905100 -30.132200 22.291600 -0.000001 0.000005 -0.108920 5.449350 -4.616550 12.994500 -0.242716 -4.980390 87.598800 7.541820 -72.281500 -5.348130 -0.000001 -0.000004 -66.188400 36.915200 -9.805420 -24.328900 0.000322 -0.000009 3.087330 9.138470 -18.763700 -22.291500 -0.000108 -0.000004 9.127260 5.384150 -2.429210 -2.192480 -6.469440 -0.000000 -176.636000 -10.304500 -2.704660 39.081100 -0.000007 -0.000012 -0.066159 0.209096 17.557700 40.985400 -0.000006 -0.000013 -0.506020 2.925560 -63.029400 11.754300 -0.000000 0.000003 -0.000001 -0.000019 -16.578200 -2.192510 6.469440 -0.000001 179.317000 10.627100 179.471000 -39.081100 -0.002282 -0.040193 -0.052722 0.213871 14.686100 -40.985400 0.000008 0.000006 1.115140 7.097600 -62.601500 -11.754300 -0.000006 -0.000006 -0.006338 -0.073874 -19.579900
0.000000 0.000000 0.000000 0.000000 0.000000 -0.000000 -1.053230 92.942200 -1.274110 89.019900 -3.867420 1.814670 15.735700 0.000005 -0.000001 95.958500 86.805200 -95.701900 8.984550 -0.406207 -0.000000 -1.412410 0.642587 0.521134 16.377300 -0.000001 -0.000001 1.126560 -1.614530 1.906240 6.456720 -0.000001 -0.000000 7.825890 -1.171920 -4.055310 12.994200 -0.242716 4.980390 -90.105800 0.293715 -70.195900 5.348090 -0.000007 -0.000001 -62.153800 33.595500 -14.417000 24.328600 0.000019 0.000005 7.580980 10.762100 -35.477700 22.291600 -0.000001 0.000005 -0.077311 5.454780 -4.809890 12.994500 -0.242716 -4.980390 87.619800 7.429200 -72.179100 -5.348130 -0.000001 -0.000004 -66.392600 36.587400 -9.605050 -24.328900 0.000322 -0.000009 3.130230 9.256730 -18.782400 -22.291500 -0.000108 -0.000004 9.151070 5.380030 -2.299230 -2.192480 -6.469440 -0.000000 -176.615000 -10.222100 -2.723360 39.081100 -0.000007 -0.000012 -0.066056 0.209894 17.469400 40.985400 -0.000006 -0.000013 -0.517827 2.982040 -62.935000 11.754300 -0.000000 0.000003 -0.000001 -0.000013 -16.578000 -2.192510 6.469440 -0.000001 179.351000 10.778100 179.497000 -39.081100 -0.002282 -0.040193 -0.051587 0.211435 14.560300 -40.985400 0.000008 0.000006 1.131270 7.085010 -62.512200 -11.754300 -0.000006 -0.000006 -0.006548 -0.075736 -19.655900
0.000000 0.000000 0.000000 0.000000 0.000000 -0.000000 -1.092350 92.953200 -1.341700 89.018800 -3.645550 1.792400 15.735700 0.000005 -0.000001 96.516100 86.805500 -96.173300 8.984550 -0.406207 -0.000000 -1.420240 0.697413 0.694083 16.377300 -0.000001 -0.000001 1.138510 -1.547890 1.826260 6.456720 -0.000001 -0.000000 7.709680 -1.279580 -4.181740 12.994200 -0.242716 4.980390 -90.028400 0.078204 -70.052900 5.348090 -0.000007 -0.000001 -58.256800 29.514700 -17.558900 24.328600 0.000019 0.000005 7.874600 9.238590 -40.747900 22.291600 -0.000001 0.000005 0.867220 5.471290 -5.418060 12.994500 -0.242716 -4.980390 87.669200 7.265180 -72.159000 -5.348130 -0.000001 -0.000004 -66.639400 36.134400 -9.351610 -24.328900 0.000322 -0.000009 3.126410 9.254170 -18.765800 -22.291500 -0.000108 -0.000004 9.150740 5.380460 -2.312660 -2.192480 -6.469440 -0.000000 -176.596000 -10.128700 -2.797190 39.081100 -0.000007 -0.000012 -0.065528 0.208838 17.420400 40.985400 -0.000006 -0.000013 -0.522217 3.105760 -62.841000 11.754300 -0.000000 0.000003 -0.000002 -0.000025 -16.578500 -2.192510 6.469440 -0.000001 179.385000 10.964000 179.498000 -39.081100 -0.002282 -0.040193 -0.051120 0.211019 14.469000 -40.985400 0.000008 0.000006 1.152890 7.064310 -62.448800 -11.754300 -0.000006 -0.000006 -0.006383 -0.074280 -19.596500
